PathFileType	4	(X/Y/Z)	c:/Users/goper/Files/vsCode/490R/osim_files/C08/C08_Fast_06.trc
DataRate	CameraRate	NumFrames	NumMarkers	Units                	OrigDataRate	OrigDataStartFrame	OrigNumFrames
250.00	250.00	4	36	mm	250.0	1374	2198
                Frame#	Time	LPSIS			LASIS			LTH1			LTH2			LTH3			LTH4			LLFE			LMFE			LSH1			LSH2			LSH3			LSH4			LLMAL			LMMAL			LCAL			LMTP5			LTOE			LMTP1			RPSIS			RASIS			RTH1			RTH2			RTH3			RTH4			RLFE			RMFE			RSH1			RSH2			RSH3			RSH4			RLMAL			RMMAL			RCAL			RMTP1			RTOE			RMTP5		
		X1	Y1	Z1	X2	Y2	Z2	X3	Y3	Z3	X4	Y4	Z4	X5	Y5	Z5	X6	Y6	Z6	X7	Y7	Z7	X8	Y8	Z8	X9	Y9	Z9	X10	Y10	Z10	X11	Y11	Z11	X12	Y12	Z12	X13	Y13	Z13	X14	Y14	Z14	X15	Y15	Z15	X16	Y16	Z16	X17	Y17	Z17	X18	Y18	Z18	X19	Y19	Z19	X20	Y20	Z20	X21	Y21	Z21	X22	Y22	Z22	X23	Y23	Z23	X24	Y24	Z24	X25	Y25	Z25	X26	Y26	Z26	X27	Y27	Z27	X28	Y28	Z28	X29	Y29	Z29	X30	Y30	Z30	X31	Y31	Z31	X32	Y32	Z32	X33	Y33	Z33	X34	Y34	Z34	X35	Y35	Z35	X36	Y36	Z36

1374	5.49200	-2276.69214	1049.14404	167.75758	-2486.58984	1009.81580	239.29080	-2494.55737	745.56873	320.30759	-2526.25854	674.74585	307.50269	-2555.62500	607.21368	296.17230	-2594.85840	711.96661	286.13617	-2570.16089	561.52423	288.34735	-2587.57202	552.57288	162.19936	-2518.44604	441.04449	297.71680	-2525.32275	394.44424	301.58401	-2578.34253	443.55988	305.33682	-2575.27808	398.01096	306.21255	-2545.72729	116.68285	260.61139	-2583.13306	123.55786	181.63708	-2492.38916	91.66306	197.08936	-2656.05859	62.13512	311.46088	-2720.49683	85.68371	262.11716	-2698.25684	59.05162	207.94885	-2274.47974	1049.56946	107.82478	-2462.77808	1011.40741	2.34833	-2369.07520	751.24097	-45.57474	-2357.77441	674.17865	-25.03148	-2343.92627	597.29224	-10.77567	-2430.45825	669.16852	3.03220	-2336.33618	524.90326	6.16959	-2334.30908	523.11639	132.75266	-2266.91724	449.74988	-8.27450	-2265.87866	405.60583	-11.04509	-2328.25488	441.84100	-0.11188	-2320.23242	397.55170	-3.44801	-2218.90015	108.98804	56.05528	-2250.32080	110.90198	143.80780	-2159.09790	86.61626	127.02217	-2372.39941	44.35082	127.59131	-2389.75269	60.89169	74.40118	-2335.09570	45.85143	15.06129
1375	5.49600	-2281.37012	1048.41321	167.98869	-2491.51025	1008.76349	239.39439	-2498.67871	744.42230	319.79755	-2530.42944	673.67957	306.99054	-2559.70337	606.07324	295.77625	-2599.02686	710.80719	285.55420	-2574.48950	560.42206	287.91022	-2591.83740	551.63983	161.73895	-2525.63892	438.63779	297.65253	-2533.86670	392.38284	301.80792	-2585.47729	442.81738	305.12677	-2583.58105	397.23508	306.03534	-2561.28613	115.08335	260.89505	-2597.56055	122.73701	181.76991	-2508.05640	88.78791	197.65663	-2672.09985	60.96952	310.53882	-2736.75146	88.12047	261.64865	-2714.72803	60.99657	207.57977	-2278.14868	1049.24780	107.98149	-2467.21362	1010.59668	2.12300	-2372.29688	750.97375	-45.69776	-2361.04199	673.85547	-24.25146	-2346.38745	597.18530	-10.80977	-2434.19507	669.10156	2.91756	-2338.73169	524.85565	6.13355	-2336.42383	523.01880	132.76556	-2268.68750	449.91144	-8.23014	-2267.32324	405.74579	-11.03885	-2329.84253	441.73856	-0.13396	-2321.66724	397.50861	-3.48160	-2218.80957	109.48238	55.60682	-2250.52222	111.11914	143.78606	-2159.23511	87.03976	127.05912	-2372.42920	44.26982	127.53247	-2389.86133	60.78480	74.34133	-2335.06299	45.79609	15.00015
1376	5.50000	-2286.20508	1047.70557	168.28477	-2496.44287	1007.75677	239.50604	-2502.70630	743.24109	319.31259	-2533.64600	672.28418	306.05768	-2563.57959	604.82422	295.43805	-2603.05054	709.56061	285.07022	-2578.73291	559.32544	287.59406	-2595.95947	550.60248	161.29686	-2532.83740	436.44290	297.88223	-2542.17725	390.25720	301.88760	-2592.39014	442.13104	304.86017	-2591.76880	396.46619	305.92291	-2576.60669	113.71948	261.11490	-2612.29199	122.14394	181.85312	-2523.68286	86.08762	198.18361	-2688.90234	62.20134	310.21881	-2752.72681	90.84589	260.96936	-2730.92871	63.23116	207.06029	-2283.44287	1048.34766	108.50226	-2471.72119	1009.75073	1.93936	-2375.55151	750.69952	-45.75204	-2363.52881	673.77716	-25.12214	-2348.82349	597.04041	-10.81244	-2437.07471	668.57190	2.87031	-2340.89453	524.73932	6.10119	-2338.59937	522.90472	132.74858	-2270.29565	450.13504	-8.21912	-2268.86694	405.90521	-11.03780	-2331.55078	441.57974	-0.15385	-2323.11499	397.44931	-3.50247	-2218.87646	109.91650	55.71605	-2250.77686	111.37156	143.80319	-2159.40918	87.44836	127.06171	-2372.44165	44.19317	127.51710	-2389.92749	60.58914	74.26624	-2335.15039	45.70157	14.94343
1377	5.50400	-2291.03687	1046.95764	168.56294	-2501.49194	1006.74084	239.59731	-2506.64355	741.98120	318.85181	-2538.26782	671.24542	306.20761	-2567.44922	603.55310	295.24121	-2606.97559	708.16486	284.58276	-2582.86401	558.05243	287.30911	-2600.00073	549.52844	160.89149	-2540.05273	434.28055	298.05048	-2550.47217	388.25296	301.99460	-2599.45312	441.38116	304.64655	-2599.93774	395.72955	305.78876	-2591.85620	112.48952	261.30237	-2626.73730	121.78291	181.91872	-2539.11426	83.67455	198.76321	-2705.63770	63.73598	309.74658	-2768.35107	93.80104	260.22595	-2747.24585	65.89780	206.37498	-2287.42822	1047.92078	108.56766	-2476.16309	1008.92395	1.69499	-2378.90894	750.42267	-45.88279	-2366.47534	673.50757	-25.19585	-2351.44434	596.89001	-10.81995	-2440.08521	668.07416	2.84362	-2343.06226	524.61371	6.09980	-2340.89868	522.81140	132.74615	-2272.53052	450.30261	-8.29462	-2270.46191	406.09531	-11.00458	-2333.33618	441.54327	-0.17174	-2324.63770	397.40366	-3.54723	-2219.93506	109.79884	56.06584	-2251.10059	111.62651	143.84464	-2159.66040	87.90508	127.12816	-2372.48218	44.06645	127.52345	-2389.99976	60.38052	74.25632	-2335.42920	45.60956	14.83807
